<svg viewBox="0 0 32 32" fill="none" xmlns="http://www.w3.org/2000/svg">
  <!-- Premium Portal Gate / Exit Icon -->
  <g stroke="currentColor" stroke-width="2.4" stroke-linecap="round" stroke-linejoin="round">
    <!-- Portal frame - left side -->
    <path d="M 9 9 L 9 23 Q 9 25 11 25 L 13 25"/>
    <!-- Portal frame - right side -->
    <path d="M 23 9 L 23 23 Q 23 25 21 25 L 19 25"/>
    <!-- Portal frame - top -->
    <path d="M 9 9 Q 9 7 11 7 L 21 7 Q 23 7 23 9"/>
    <!-- Portal mystical arc inside -->
    <path d="M 13 10 Q 16 13 16 16 Q 16 19 13 22" fill="none" stroke="currentColor" stroke-width="2.4"/>
    <!-- Portal mystical arc right -->
    <path d="M 19 10 Q 16 13 16 16 Q 16 19 19 22" fill="none" stroke="currentColor" stroke-width="2.4"/>
    <!-- Exit arrow - pointing right -->
    <path d="M 19 16 L 25 16" stroke="currentColor" stroke-width="2.4"/>
    <!-- Arrow head -->
    <path d="M 23 14 L 25 16 L 23 18" fill="none" stroke="currentColor" stroke-width="2.4"/>
  </g>
</svg>
