<svg viewBox="0 0 32 32" fill="none" xmlns="http://www.w3.org/2000/svg">
  <!-- Premium Warrior Bust -->
  <g stroke="currentColor" stroke-width="2.4" stroke-linecap="round" stroke-linejoin="round">
    <!-- Helmet dome -->
    <path d="M 9 13 Q 9 8 16 7 Q 23 8 23 13"/>
    <!-- Helmet front plate/noseguard -->
    <path d="M 16 7 L 16 13"/>
    <!-- Face contours - left cheek -->
    <path d="M 10 13 Q 9 15 11 17"/>
    <!-- Face contours - right cheek -->
    <path d="M 22 13 Q 23 15 21 17"/>
    <!-- Armor shoulder pauldron left -->
    <path d="M 11 17 Q 8 18 8 21"/>
    <!-- Armor shoulder pauldron right -->
    <path d="M 21 17 Q 24 18 24 21"/>
    <!-- Chest armor central plate -->
    <path d="M 14 17 L 14 24"/>
    <path d="M 18 17 L 18 24"/>
    <!-- Cross pattern on chest (ornamental) -->
    <line x1="14" y1="20" x2="18" y2="20"/>
    <!-- Neck guard -->
    <path d="M 14 16 Q 14 17.5 16 17.5 Q 18 17.5 18 16"/>
  </g>
</svg>